<svg xmlns="http://www.w3.org/2000/svg" viewBox="0 0 371.98 390.99"><defs><style>.cls-1{fill:#cc5100;}.cls-2{fill:#6ad5ff;}.cls-3{fill:#fff;}.cls-4{fill:#b818d4;}.cls-5{fill:#eed7aa;}.cls-6{fill:#7a2b88;}.cls-7{fill:#ff751a;}.cls-8{fill:#dd6355;}.cls-9{fill:#cc1a00;}.cls-10{fill:#b4a382;}</style></defs><g id="Layer_2" data-name="Layer 2"><path class="cls-1" d="M345.71,427.84c2.19,6.47,4.91,14.52,6,20.45,4.2,23.73,2.7,49.84-4.44,77.6l0,0-.17.48-.06.25h0l-.07.21h0c-.45,3.63-1.43,11.77-1.68,16.26-.12,2.31-.19,4.84-.21,7.46l1.24.11c4.58.44,12.25,1.16,18.14-.12a55.26,55.26,0,0,0,16.28-6.43,55.48,55.48,0,0,1-8.46-6.73,49.66,49.66,0,0,1-6.79-8.7l.85-.53A48.22,48.22,0,0,0,373,536.7a55.63,55.63,0,0,0,8.68,6.86,63.29,63.29,0,0,0,18-16.76c7.33-10.43,10.74-25.85,9.67-43.53-2.78,2-9.81,6.61-16.6,6.61a11.8,11.8,0,0,1-9.74-4.73c-16.07-19.69-17.06-53.53-17.07-53.87-.1-4.08.68-14.08,1.52-21.83a116,116,0,0,1-23.57,12.92C344.4,424,345,425.82,345.71,427.84Z" transform="translate(-112.51 -241.03)"/><path class="cls-2" d="M271.57,343.89a43.4,43.4,0,0,0-8.53-5.67,32.4,32.4,0,0,0-11.91-3.07c-3.18-.18-8-.45-13.21,2.15a23.14,23.14,0,0,0-9.33,8.71,25.66,25.66,0,0,0-3.5,8.8,40.42,40.42,0,0,0-.46,8,39.53,39.53,0,0,0,20.58,2.07c4.06-.72,16.39-2.89,23.3-14.06A28.68,28.68,0,0,0,271.57,343.89Zm-24.9,16.45c-5.56,0-10.08-3.91-10.08-8.71s4.52-8.7,10.08-8.7,10.07,3.91,10.07,8.7S252.22,360.34,246.67,360.34Z" transform="translate(-112.51 -241.03)"/><path class="cls-3" d="M227.75,345.47a24.18,24.18,0,0,1,9.72-9.07c5.46-2.71,10.43-2.43,13.72-2.25a33.57,33.57,0,0,1,12.28,3.17,43.86,43.86,0,0,1,8.38,5.5,33.3,33.3,0,0,0,0-15.45l-46.49.63,0,.11a29.06,29.06,0,0,1-1.56,5.38c-2.8,5.89-7.85,9.07-11.54,11.39-.42.26-.95.62-1.55,1a51.67,51.67,0,0,1-6.72,4,54.31,54.31,0,0,0,15.17,10.57c1.24.56,2.75,1.24,4.5,1.91a40.47,40.47,0,0,1,.48-7.78A26.82,26.82,0,0,1,227.75,345.47Z" transform="translate(-112.51 -241.03)"/><path class="cls-1" d="M297.8,534.47c-.23-1.5-.45-2.93-.62-4.19-3.86,14.44-16.09,25-30.55,25-17.55,0-31.82-15.59-31.82-34.75,0-15,8.8-27.87,21.07-32.7-2.38-11.7-5-29.09-1-46.12a79.13,79.13,0,0,1,3.46-9.55c.5-1.23,1-2.39,1.34-3.35a129.21,129.21,0,0,1-27.62-9.62c.1.89.2,1.82.31,2.82.58,5.23,1.31,11.74,1.34,14.34,0,.19.12,19.5-8.64,43.78a8.12,8.12,0,0,1-1.73,2.86,9.31,9.31,0,0,1-4,2.29,3.74,3.74,0,0,1-1.09.14c-3.62,0-9.81-3.84-15.65-9.76-.12.74-.29,1.63-.48,2.63a60.71,60.71,0,0,0-1.26,8.94c-.12,8.76-.31,22,5.61,35.32h0A70.16,70.16,0,0,0,217,538.34a62.92,62.92,0,0,0,9-4.39,20,20,0,0,0,5.51-6l.86.51a20.92,20.92,0,0,1-5.79,6.34,61,61,0,0,1-8.83,4.37,57.91,57.91,0,0,0,4.84,4.81c24.1,21.38,64.8,14,76.7,11.24l.24,0c-.06-4.17-.2-8.28-.5-12C298.75,540.71,298.26,537.54,297.8,534.47Z" transform="translate(-112.51 -241.03)"/><path class="cls-4" d="M297.88,528.18a37.76,37.76,0,0,1,5.35-3.09,47.46,47.46,0,0,1,15.4-3.47c11-.85,21.71,2,27.66,4a213.52,213.52,0,0,0,6.09-35.49L345,475.39l-29.82,15.46-.26-.24-24.74-23.25L256.53,485.6l-.12-.22q.21,1.1.42,2.13a29.38,29.38,0,0,1,9.8-1.69c17.55,0,31.82,15.58,31.82,34.74a37.46,37.46,0,0,1-.81,7.78Z" transform="translate(-112.51 -241.03)"/><path class="cls-5" d="M346,526.52c-5.87-2-16.41-4.74-27.27-3.9a46.2,46.2,0,0,0-15.1,3.4,36.84,36.84,0,0,0-5.18,3l-.37.24c.17,1.44.44,3.2.72,5.06.47,3.08,1,6.28,1.16,8.72.78,9.79.51,22.22.31,31.3l0,1.87,0,0a32.69,32.69,0,0,0,4.82,4.4c9.85,6.43,20.92,4.19,22.15,3.91,6.14-1.38,12.38-5.7,17.6-12.18a250.74,250.74,0,0,1-.54-29.33C344.53,538.45,345.54,530.06,346,526.52Z" transform="translate(-112.51 -241.03)"/><path class="cls-5" d="M324.94,601.19a10.44,10.44,0,0,0,7.86-.86c3.53-2.08,4.5-6,5.08-8.3.51-2.06-.47-6.87-1-9.45-.1-.45-.18-.85-.24-1.18a27.35,27.35,0,0,1-9.2,4.14,30.83,30.83,0,0,1-6.37.62,35,35,0,0,1-5.07-.38,19.61,19.61,0,0,0,1.21,7.82C319,597.71,321.61,600.26,324.94,601.19Z" transform="translate(-112.51 -241.03)"/><path class="cls-5" d="M297.45,520.56c0-18.6-13.82-33.74-30.82-33.74-15.89,0-29,13.22-30.65,30.14,1.51-1.46,3.8-3.68,5.36-4.92a47.43,47.43,0,0,1,9.14-6.17A39.44,39.44,0,0,1,261,502.43a29.57,29.57,0,0,1,11.26-.34,27.25,27.25,0,0,1,10.6,4.6c6.71,4.51,11.95,12,14.43,16.94C297.4,522.62,297.45,521.6,297.45,520.56Z" transform="translate(-112.51 -241.03)"/><path d="M337.54,580.77c.06.36.17.92.31,1.61.59,2.85,1.57,7.61,1,9.89-.61,2.48-1.65,6.63-5.54,8.92a10.57,10.57,0,0,1-5.38,1.4,12.6,12.6,0,0,1-3.26-.43c-3.63-1-6.45-3.77-8.38-8.16a20.47,20.47,0,0,1-1.28-8.39,28.5,28.5,0,0,1-10.49-4.13,32.07,32.07,0,0,1-4.87-4.41c-2.09,3.67-6,11.59-6,19.55,0,19,13.47,34.4,30,34.4s30-15.43,30-34.4A37,37,0,0,0,345.56,573,42.15,42.15,0,0,1,337.54,580.77Z" transform="translate(-112.51 -241.03)"/><path class="cls-5" d="M256.73,511.4c.83,3.39,1.85,7.61,5.43,9.77a10.65,10.65,0,0,0,7.77,1c4.07-1.09,6.14-4.46,7.51-6.68,1.93-3.15,2.73-8.22,2.87-9.2h0a24.79,24.79,0,0,0-8.24-3.18,29,29,0,0,0-10.91.34,39.43,39.43,0,0,0-4.79,1.19v1A28.69,28.69,0,0,0,256.73,511.4Z" transform="translate(-112.51 -241.03)"/><path d="M297.11,525.54c-2-4.65-7.51-13.13-14.77-18l-1.1-.72c-.26,1.6-1.11,6.17-2.95,9.17-1.45,2.36-3.65,5.93-8.11,7.13a12.48,12.48,0,0,1-3.05.38,10.6,10.6,0,0,1-5.48-1.46c-3.95-2.37-5-6.81-5.89-10.38a28.59,28.59,0,0,1-.35-6v-.7a37.87,37.87,0,0,0-4.48,1.84,46.77,46.77,0,0,0-9,6.06c-1.61,1.29-4.08,3.69-5.55,5.13l-.54.52c0,.69-.06,1.39-.06,2.09,0,18.61,13.82,33.75,30.82,33.75,14.29,0,26.34-10.71,29.81-25.18v0h0A34.9,34.9,0,0,0,297.11,525.54Z" transform="translate(-112.51 -241.03)"/><path class="cls-4" d="M343,422.74a138.72,138.72,0,0,1-51.45,9.65,143.4,143.4,0,0,1-30.85-3.32c-.38,1-.87,2.2-1.39,3.49a80,80,0,0,0-3.42,9.41,84,84,0,0,0-2,21.23l41.41-22.9L321,464.48l29.67-16.36c-1.08-5.83-3.72-13.65-5.86-20C344.08,426.16,343.46,424.33,343,422.74Z" transform="translate(-112.51 -241.03)"/><path class="cls-6" d="M350.8,449.16l-30,16.55-.26-.25L295.1,441.53,253.92,464.3l-.06-.11a135.69,135.69,0,0,0,2.4,20.41l34.05-18.47,25,23.5L345.41,474l7.11,14.1A162.14,162.14,0,0,0,350.8,449.16Z" transform="translate(-112.51 -241.03)"/><path class="cls-5" d="M468.66,274.69a14.63,14.63,0,0,0-9.89,1.32c-4.24,2.29-7.12,7-8.12,13.32a21.13,21.13,0,0,0-.18,5.12c.54,6.15-.2,25.68-9.8,42.57-2.8,4.92-11.32,19.91-28.14,25.35-3.89,1.26-9.81,1.72-12.13,1.88a68.52,68.52,0,0,1-3.18,9.41c15.81-.85,52.44-5.8,72.53-32.75,10.87-14.58,15.33-28.83,13.24-42.36C482.45,295.06,479.23,277.5,468.66,274.69Z" transform="translate(-112.51 -241.03)"/><path class="cls-5" d="M395.88,321.54c-2.6-.37-5.75-1-9.08-1.67A134.35,134.35,0,0,0,371,317.34c-7.09-.48-14.29-.71-21.4-.69v-.16l-.23-.44c-2.59-5.13-6.94-13.71-12.5-19.48A70.18,70.18,0,0,0,330,290.4c-.22.43-.5.92-.8,1.47a34.58,34.58,0,0,0-2.53,5.17c-1.56,6,.31,14.31.92,17l-.45.1v.14c-12.07-.49-24.31-.49-36.37,0-8,.33-16.16.89-24.16,1.65l-.06-.66c-.9-2.85-2.52-6.6-4-9.93-.38-.87-.75-1.72-1.09-2.52-.63-1.49-2-4.07-3.09-6.13-.4-.77-.78-1.48-1.09-2.07A48.94,48.94,0,0,0,241.59,305c-2.91,2.86-6,8.05-7.85,11.15l-.75,1.25,0,.17c-9.46-.93-19.68-1.45-28.76-1.46-3,0-7.16.22-10.79.42-1.45.08-2.8.16-4,.21a66,66,0,0,0-7.95,31.16c0,46,49.35,83.5,110,83.5s110-37.46,110-83.5A65.23,65.23,0,0,0,395.88,321.54Zm-98.48,37.9a69.37,69.37,0,0,1,.77-8.5l1,.16a67.79,67.79,0,0,0,.38,22.83l-1,.18A68.9,68.9,0,0,1,297.4,359.44Zm-58.63,7c-8.94,0-15.94-3.15-20.06-5a55.11,55.11,0,0,1-15.75-11l-.17.07-.14-.38-.21-.19.1-.1-.11-.27c.21-.08.43-.17.64-.27l.08-.07,0,0a47.8,47.8,0,0,0,6.93-4.1c.61-.41,1.15-.77,1.58-1,3.78-2.38,8.49-5.34,11.17-11a27.47,27.47,0,0,0,1.48-5.17l.13-.59.12,0V327l47.09-.64h.94l.09.38c1,4.07,2.8,14.61-3.35,24.57-7.14,11.56-19.81,13.79-24,14.52A37.59,37.59,0,0,1,238.77,366.41Zm100.31,29.2a31.54,31.54,0,0,1-9.34-6.27,59,59,0,0,1-.18,13.11c-.44,2.42-1.77,9.79-8,15.31-6,5.32-13.12,5.79-18.33,6.13-1.22.08-2.63.17-4.18.17a27.92,27.92,0,0,1-12.29-2.62c-9-4.29-13-12.39-14.65-15.85-2.06-4.2-3-10.11-3.46-13.48a28.73,28.73,0,0,1-7.83,7.67l-.55-.84a27.39,27.39,0,0,0,12.39-23.6l1,0a28.8,28.8,0,0,1-1.51,9.84,30.21,30.21,0,0,0,10.25,8.95c12,6.27,29.18,2.91,44-8.51a32.13,32.13,0,0,1-5.07-10.13l1-.28a30.92,30.92,0,0,0,7.09,12.41,30.57,30.57,0,0,0,10.05,7.1Zm19.6-27.52c-.61,0-1.22,0-1.84,0-2.28-.12-22.57-1.64-31.74-18.4-4.24-7.75-3.92-18-3.35-23.47h0v-.45l50.57-.37v.28h.13a40.93,40.93,0,0,0,1.18,6.68c2.94,9.91,10.45,16.13,16.32,19.65l0-.06.74.68C387.39,356.3,375.37,368.09,358.68,368.09Z" transform="translate(-112.51 -241.03)"/><path class="cls-7" d="M369.76,273.48a10.84,10.84,0,0,0-8.79,1.06c-1.45.83-3.84,3.57-4.76,4.73a107.93,107.93,0,0,1,18.39,12.66c.85-1.75,3.25-7.35,1.59-11.74A10.8,10.8,0,0,0,369.76,273.48Z" transform="translate(-112.51 -241.03)"/><path class="cls-3" d="M372.7,332.6a40.43,40.43,0,0,1-1.15-6.24l-48.85.36a54.74,54.74,0,0,0,.08,11.78,32.49,32.49,0,0,1,6.58-4.66c9.83-4.69,19.53-.11,19.94.09A21.32,21.32,0,0,1,361,359.25a23.27,23.27,0,0,1-4.24,7.78h.13c16.1.84,28.13-9.89,32.38-14.34C383.29,349.08,375.7,342.71,372.7,332.6Z" transform="translate(-112.51 -241.03)"/><path class="cls-8" d="M355.31,278.79c.73-.92,3.42-4.12,5.16-5.12a11.13,11.13,0,0,1,16.65,6.17c1.89,5-1,11.26-1.74,12.77a87.22,87.22,0,0,1,15.5,17.67l1.42.5c2.05.75,5.17,1.88,6.74,1.85a17.19,17.19,0,0,0,10.56-3.47c.71-.56,7-5.75,6-13.56a15,15,0,0,0-6.26-10.1c-3.72-2.76-11.46-3.83-13.33-3.89l0-.5-.13-.48c7.28-2,13.13-6.77,15.65-12.81a19.84,19.84,0,0,0-.64-16.44,16.62,16.62,0,0,0-11.05-8.85c-12.07-2.88-23.35,7.11-27.3,18.42l-.09,0v0l-1,.24a31.16,31.16,0,0,0-4-9A23.28,23.28,0,0,0,348,243.68a17.4,17.4,0,0,0-9.22,3.61,17.82,17.82,0,0,0-5.75,8.83c-.58,1.77-1.1,5.48-.25,13.12l-.5.05A125.43,125.43,0,0,1,355.31,278.79Z" transform="translate(-112.51 -241.03)"/><path class="cls-1" d="M204.17,315.1h0c8.89,0,18.85.51,28.15,1.4l.52-.87c1.87-3.14,5-8.4,8-11.35a50.1,50.1,0,0,1,16.94-10.92l.05.12h0c.34.69.87,1.68,1.44,2.77,1.17,2.19,2.48,4.68,3.13,6.2.34.81.71,1.65,1.08,2.52,1.43,3.31,3,7,4,9.91,7.71-.72,15.53-1.25,23.26-1.57,11.83-.48,23.83-.48,35.68,0-.76-3.45-2.16-10.86-.7-16.5a33.24,33.24,0,0,1,2.63-5.4c.34-.63.64-1.18.87-1.62l0,0,.1-.12c.08-.17.15-.32.21-.43l.09,0,.21-.28a69.86,69.86,0,0,1,7.75,6.92c5.67,5.87,10.05,14.54,12.68,19.71l0,.06c6.87,0,13.88.23,20.77.69A135.08,135.08,0,0,1,387,318.89c3.05.61,5.95,1.19,8.4,1.57-15-32.61-55.89-56.07-103.89-56.07-45.63,0-84.86,21.2-101.49,51.31l3.35-.18C197,315.33,201.12,315.1,204.17,315.1Z" transform="translate(-112.51 -241.03)"/><path class="cls-9" d="M302.43,411.38a56.28,56.28,0,0,0-15.17,2.68,58.57,58.57,0,0,0-6.14,2.38,25.92,25.92,0,0,0,6.1,4.1c6.27,3,12.11,2.61,16,2.35,5.34-.35,12-.78,17.72-5.88.47-.41.89-.83,1.3-1.26A34.94,34.94,0,0,0,314,412.4,38.29,38.29,0,0,0,302.43,411.38Z" transform="translate(-112.51 -241.03)"/><path class="cls-2" d="M358.8,344.49a20.64,20.64,0,0,0-9.93-9.66c-.39-.19-9.68-4.57-19.08-.09a32.55,32.55,0,0,0-6.83,5,29,29,0,0,0,3,9.46c7.93,14.5,24.48,17.26,29.58,17.77a22.65,22.65,0,0,0,4.49-8A21,21,0,0,0,358.8,344.49ZM342.39,359c-5.55,0-10.07-3.9-10.07-8.7s4.52-8.71,10.07-8.71,10.07,3.91,10.07,8.71S348,359,342.39,359Z" transform="translate(-112.51 -241.03)"/><path class="cls-3" d="M274.4,398.61c3.18,2.4,6.6,3.51,13.08,4.27a71.65,71.65,0,0,0,21.83-.1c10.21-1.71,13.23-4.56,14.22-5.49a43.24,43.24,0,0,0,5.35-6.22c-.08-1.25-.18-2.27-.29-2.91-.53-.57-1-1.17-1.52-1.78-10.05,7.74-21.19,11.84-31.15,11.84A29.91,29.91,0,0,1,282,395a31.28,31.28,0,0,1-10.2-8.73A27.58,27.58,0,0,1,270,390c-.16.28-.33.56-.5.84.09.75.23,1.75.41,2.91l.43.52A37.41,37.41,0,0,0,274.4,398.61Z" transform="translate(-112.51 -241.03)"/><path class="cls-5" d="M173.8,379.32A69.49,69.49,0,0,0,147,387.8c-12.88,7.35-18.77,16.47-27.69,30.26-4.67,7.22-6.12,11.2-5.74,15.76.09,1,1.06,10.2,8.43,13.6,6.08,2.81,13.28.06,17.4-3.67,1.67-1.52,2.18-2.65,3.4-5.4.91-2.06,2.17-4.88,4.53-9.34,3-5.6,4.47-8.41,6.71-11.35a45.81,45.81,0,0,1,16.07-13c10.86-5.55,27.75-5,34.2-4.58a83,83,0,0,1-15.94-21A100.59,100.59,0,0,0,173.8,379.32Z" transform="translate(-112.51 -241.03)"/><path class="cls-10" d="M324.21,398c-1,1-4.22,4-14.73,5.76a64.9,64.9,0,0,1-10.87.91,93.94,93.94,0,0,1-11.24-.8c-6.68-.79-10.23-2-13.58-4.48a30.83,30.83,0,0,1-3.54-3.72,38.36,38.36,0,0,0,2.79,9.47,36.3,36.3,0,0,0,7.27,10.55,58.29,58.29,0,0,1,6.65-2.59,57.43,57.43,0,0,1,15.44-2.73,39.35,39.35,0,0,1,11.81,1.05,35.57,35.57,0,0,1,8.7,3.56,26.18,26.18,0,0,0,5.66-12.72,50,50,0,0,0,.39-9.56A50.68,50.68,0,0,1,324.21,398Z" transform="translate(-112.51 -241.03)"/></g><g id="Layer_3" data-name="Layer 3"><path d="M329.43,387.6a30.92,30.92,0,0,1-7.09-12.41l-1,.28a32.13,32.13,0,0,0,5.07,10.13c-14.84,11.42-32.06,14.78-44,8.51a30.21,30.21,0,0,1-10.25-8.95,28.8,28.8,0,0,0,1.51-9.84l-1,0a27.39,27.39,0,0,1-12.39,23.6l.55.84a28.73,28.73,0,0,0,7.83-7.67c.46,3.37,1.4,9.28,3.46,13.48,1.69,3.46,5.66,11.56,14.65,15.85a27.92,27.92,0,0,0,12.29,2.62c1.55,0,3-.09,4.18-.17,5.21-.34,12.34-.81,18.33-6.13,6.2-5.52,7.53-12.89,8-15.31a59,59,0,0,0,.18-13.11,31.54,31.54,0,0,0,9.34,6.27l.4-.91A30.57,30.57,0,0,1,329.43,387.6Zm-59.91,3.23c.17-.28.34-.56.5-.84a27.58,27.58,0,0,0,1.75-3.72A31.28,31.28,0,0,0,282,395a29.91,29.91,0,0,0,13.95,3.22c10,0,21.1-4.1,31.15-11.84.49.61,1,1.21,1.52,1.78.11.64.21,1.66.29,2.91a43.24,43.24,0,0,1-5.35,6.22c-1,.93-4,3.78-14.22,5.49a71.65,71.65,0,0,1-21.83.1c-6.48-.76-9.9-1.87-13.08-4.27a37.41,37.41,0,0,1-4-4.35l-.43-.52C269.75,392.58,269.61,391.58,269.52,390.83ZM320.92,417c-5.73,5.1-12.38,5.53-17.72,5.88-3.87.26-9.71.64-16-2.35a25.92,25.92,0,0,1-6.1-4.1,58.57,58.57,0,0,1,6.14-2.38,56.28,56.28,0,0,1,15.17-2.68,38.29,38.29,0,0,1,11.53,1,34.94,34.94,0,0,1,8.26,3.35C321.81,416.18,321.39,416.6,320.92,417Zm7.65-14.74A26.18,26.18,0,0,1,322.91,415a35.57,35.57,0,0,0-8.7-3.56,39.35,39.35,0,0,0-11.81-1.05A57.43,57.43,0,0,0,287,413.11a58.29,58.29,0,0,0-6.65,2.59A36.3,36.3,0,0,1,273,405.15a38.36,38.36,0,0,1-2.79-9.47,30.83,30.83,0,0,0,3.54,3.72c3.35,2.52,6.9,3.69,13.58,4.48a93.94,93.94,0,0,0,11.24.8,64.9,64.9,0,0,0,10.87-.91C320,402,323.17,399,324.21,398a50.68,50.68,0,0,0,4.75-5.3A50,50,0,0,1,328.57,402.27Z" transform="translate(-112.51 -241.03)"/><path d="M299.54,373.93a67.79,67.79,0,0,1-.38-22.83l-1-.16a68.79,68.79,0,0,0,.39,23.17Z" transform="translate(-112.51 -241.03)"/><path d="M468.91,273.72a15.49,15.49,0,0,0-10.62,1.41c-4.51,2.44-7.58,7.42-8.63,14a22,22,0,0,0-.18,5.42c.52,6-.2,25.27-9.68,41.93-2.75,4.84-11.13,19.58-27.58,24.9-3.6,1.17-9.08,1.63-11.56,1.81a64.73,64.73,0,0,0,1.84-15.34,67.89,67.89,0,0,0-10.74-36.24l.2.07c2.09.76,5.24,1.91,7,1.91h.08A18.16,18.16,0,0,0,410.22,310c.76-.61,7.4-6.12,6.37-14.47a16,16,0,0,0-6.66-10.79c-2.94-2.18-8.23-3.35-11.49-3.83,6.5-2.37,11.66-7,14-12.66a20.84,20.84,0,0,0-.67-17.27,17.6,17.6,0,0,0-11.71-9.38c-12.2-2.9-23.61,6.68-28,17.92a30.94,30.94,0,0,0-3.78-7.92,24.16,24.16,0,0,0-20.38-8.86,18.33,18.33,0,0,0-9.73,3.82,18.72,18.72,0,0,0-6.07,9.3c-.62,1.84-1.16,5.66-.32,13.33a141.56,141.56,0,0,0-40.26-5.75c-61.21,0-111,37.91-111,84.5a66.76,66.76,0,0,0,7.33,30.2,100.35,100.35,0,0,0-14.13.23,70.58,70.58,0,0,0-27.21,8.61c-13.09,7.48-19,16.67-28,30.59-4.17,6.45-6.35,11-5.89,16.38.09,1.1,1.12,10.79,9,14.43a13.72,13.72,0,0,0,5.81,1.24,19.75,19.75,0,0,0,12.69-5.08c1.82-1.66,2.39-2.93,3.63-5.73.91-2.05,2.16-4.85,4.51-9.29,2.94-5.54,4.42-8.32,6.62-11.2a44.66,44.66,0,0,1,15.73-12.68c11.32-5.79,29.48-4.82,34.77-4.39v-.1A107.36,107.36,0,0,0,231,418.69c.11,1.06.24,2.23.38,3.46.58,5.21,1.3,11.69,1.33,14.24,0,.19.11,19.33-8.58,43.43a7.07,7.07,0,0,1-1.51,2.51,8.44,8.44,0,0,1-3.54,2c-2.67.76-9.44-2.62-16.73-10.36l-.73.69a1.14,1.14,0,0,1,.11.11c-.1.77-.32,2-.58,3.34a60.87,60.87,0,0,0-1.28,9.12c-.12,8.84-.32,22.21,5.7,35.74a71.29,71.29,0,0,0,16.27,21.7c13.31,11.8,31.53,15,47.33,15a139,139,0,0,0,30.26-3.51h0c.06,6.4-.08,12.86-.2,18.17l0,1.52h0l-.23.4-.07.07,0,0c-2.09,3.62-6.26,11.91-6.26,20.3,0,19.52,13.92,35.4,31,35.4s31-15.88,31-35.4a37.86,37.86,0,0,0-9-24.89c-.42-5.7-.73-13.18-.71-20.16l1.14.11c2.68.25,6.39.6,10.21.6a39.42,39.42,0,0,0,8.24-.75c20.65-4.5,32.65-19.62,35.83-24.15,7.77-11,11.15-26.79,9.78-45.54l-.61.05,0-.06-.09.07-.24,0a.86.86,0,0,0,0,.16c-2.79,2.11-13.41,9.47-21.38,5.8a11.5,11.5,0,0,1-4.12-3.36c-15.86-19.43-16.84-52.93-16.85-53.26-.1-4.2.74-14.78,1.61-22.6,12.71-9.34,22.5-21,28.24-34,15.68-.78,53.22-5.61,73.77-33.17,11-14.8,15.56-29.31,13.43-43.11C483.42,294.8,480.09,276.69,468.91,273.72ZM333,256.12a17.82,17.82,0,0,1,5.75-8.83,17.4,17.4,0,0,1,9.22-3.61,23.28,23.28,0,0,1,19.47,8.46,31.16,31.16,0,0,1,4,9l1-.24v0l.09,0c3.95-11.31,15.23-21.3,27.3-18.42a16.62,16.62,0,0,1,11.05,8.85,19.84,19.84,0,0,1,.64,16.44c-2.52,6-8.37,10.83-15.65,12.81l.13.48,0,.5c1.87.06,9.61,1.13,13.33,3.89a15,15,0,0,1,6.26,10.1c1,7.81-5.29,13-6,13.56A17.19,17.19,0,0,1,399,312.63c-1.57,0-4.69-1.1-6.74-1.85l-1.42-.5a87.22,87.22,0,0,0-15.5-17.67c.76-1.51,3.63-7.79,1.74-12.77a11.13,11.13,0,0,0-16.65-6.17c-1.74,1-4.43,4.2-5.16,5.12a125.43,125.43,0,0,0-23-9.5l.5-.05C331.92,261.6,332.44,257.89,333,256.12Zm41.58,35.81a107.93,107.93,0,0,0-18.39-12.66c.92-1.16,3.31-3.9,4.76-4.73a10.15,10.15,0,0,1,15.22,5.65C377.85,284.58,375.45,290.18,374.6,291.93Zm-83.1-27.54c48,0,88.91,23.46,103.89,56.07-2.45-.38-5.35-1-8.4-1.57a135.08,135.08,0,0,0-15.93-2.55c-6.89-.46-13.9-.7-20.77-.69l0-.06c-2.63-5.17-7-13.84-12.68-19.71a69.86,69.86,0,0,0-7.75-6.92l-.21.28-.09,0c-.06.11-.13.26-.21.43l-.1.12,0,0c-.23.44-.53,1-.87,1.62a33.24,33.24,0,0,0-2.63,5.4c-1.46,5.64-.06,13,.7,16.5-11.85-.46-23.85-.46-35.68,0-7.73.32-15.55.85-23.26,1.57-.93-2.88-2.54-6.6-4-9.91-.37-.87-.74-1.71-1.08-2.52-.65-1.52-2-4-3.13-6.2-.57-1.09-1.1-2.08-1.44-2.77h0l-.05-.12a50.1,50.1,0,0,0-16.94,10.92c-3,3-6.14,8.21-8,11.35l-.52.87c-9.3-.89-19.26-1.39-28.15-1.4h0c-3,0-7.17.23-10.81.42l-3.35.18C206.64,285.59,245.87,264.39,291.5,264.39ZM170.1,404.7a45.81,45.81,0,0,0-16.07,13c-2.24,2.94-3.73,5.75-6.71,11.35-2.36,4.46-3.62,7.28-4.53,9.34-1.22,2.75-1.73,3.88-3.4,5.4-4.12,3.73-11.32,6.48-17.4,3.67-7.37-3.4-8.34-12.57-8.43-13.6-.38-4.56,1.07-8.54,5.74-15.76,8.92-13.79,14.81-22.91,27.69-30.26a69.49,69.49,0,0,1,26.81-8.48,100.59,100.59,0,0,1,14.56-.2,83,83,0,0,0,15.94,21C197.85,399.67,181,399.15,170.1,404.7ZM299.2,555.18c-11.9,2.77-52.6,10.14-76.7-11.24a57.91,57.91,0,0,1-4.84-4.81,61,61,0,0,0,8.83-4.37,20.92,20.92,0,0,0,5.79-6.34l-.86-.51a20,20,0,0,1-5.51,6,62.92,62.92,0,0,1-9,4.39,70.16,70.16,0,0,1-10.48-15.76h0c-5.92-13.33-5.73-26.56-5.61-35.32a60.71,60.71,0,0,1,1.26-8.94c.19-1,.36-1.89.48-2.63,5.84,5.92,12,9.76,15.65,9.76a3.74,3.74,0,0,0,1.09-.14,9.31,9.31,0,0,0,4-2.29,8.12,8.12,0,0,0,1.73-2.86c8.76-24.28,8.64-43.59,8.64-43.78,0-2.6-.76-9.11-1.34-14.34-.11-1-.21-1.93-.31-2.82a129.21,129.21,0,0,0,27.62,9.62c-.37,1-.84,2.12-1.34,3.35a79.13,79.13,0,0,0-3.46,9.55c-4,17-1.37,34.42,1,46.12-12.27,4.83-21.07,17.66-21.07,32.7,0,19.16,14.27,34.75,31.82,34.75,14.46,0,26.69-10.59,30.55-25,.17,1.26.39,2.69.62,4.19.46,3.07.95,6.24,1.14,8.65.3,3.73.44,7.84.5,12Zm-32.57-69.36a29.38,29.38,0,0,0-9.8,1.69q-.21-1-.42-2.13l.12.22,33.62-18.24,24.74,23.25.26.24L345,475.39l7.41,14.69a213.52,213.52,0,0,1-6.09,35.49c-6-2-16.64-4.8-27.66-4a47.46,47.46,0,0,0-15.4,3.47,37.76,37.76,0,0,0-5.35,3.09l-.24.16a37.46,37.46,0,0,0,.81-7.78C298.45,501.4,284.18,485.82,266.63,485.82Zm29.81,43.31c-3.47,14.47-15.52,25.18-29.81,25.18-17,0-30.82-15.14-30.82-33.75,0-.7,0-1.4.06-2.09l.54-.52c1.47-1.44,3.94-3.84,5.55-5.13a46.77,46.77,0,0,1,9-6.06,37.87,37.87,0,0,1,4.48-1.84v.7a28.59,28.59,0,0,0,.35,6c.87,3.57,1.94,8,5.89,10.38a10.6,10.6,0,0,0,5.48,1.46,12.48,12.48,0,0,0,3.05-.38c4.46-1.2,6.66-4.77,8.11-7.13,1.84-3,2.69-7.57,2.95-9.17l1.1.72c7.26,4.89,12.76,13.37,14.77,18a34.9,34.9,0,0,1-.66,3.56h0Zm-40-24.53a39.43,39.43,0,0,1,4.79-1.19,29,29,0,0,1,10.91-.34,24.79,24.79,0,0,1,8.24,3.18h0c-.14,1-.94,6-2.87,9.2-1.37,2.22-3.44,5.59-7.51,6.68a10.65,10.65,0,0,1-7.77-1c-3.58-2.16-4.6-6.38-5.43-9.77a28.69,28.69,0,0,1-.32-5.77Zm26.48,2.09a27.25,27.25,0,0,0-10.6-4.6,29.57,29.57,0,0,0-11.26.34,39.44,39.44,0,0,0-10.55,3.44,47.43,47.43,0,0,0-9.14,6.17c-1.56,1.24-3.85,3.46-5.36,4.92,1.65-16.92,14.76-30.14,30.65-30.14,17,0,30.82,15.14,30.82,33.74,0,1-.05,2.06-.13,3.07C294.84,518.7,289.6,511.2,282.89,506.69ZM345.41,474l-30.09,15.59-25-23.5L256.26,484.6a135.69,135.69,0,0,1-2.4-20.41l.06.11,41.18-22.77,25.43,23.93.26.25,30-16.55a162.14,162.14,0,0,1,1.72,39ZM321,464.48l-25.7-24.18-41.41,22.9a84,84,0,0,1,2-21.23,80,80,0,0,1,3.42-9.41c.52-1.29,1-2.5,1.39-3.49a143.4,143.4,0,0,0,30.85,3.32A138.72,138.72,0,0,0,343,422.74c.51,1.59,1.13,3.42,1.81,5.42,2.14,6.31,4.78,14.13,5.86,20ZM345.56,573a37,37,0,0,1,8.17,23.58c0,19-13.47,34.4-30,34.4s-30-15.43-30-34.4c0-8,3.89-15.88,6-19.55a32.07,32.07,0,0,0,4.87,4.41A28.5,28.5,0,0,0,315,585.61a20.47,20.47,0,0,0,1.28,8.39c1.93,4.39,4.75,7.14,8.38,8.16a12.6,12.6,0,0,0,3.26.43,10.57,10.57,0,0,0,5.38-1.4c3.89-2.29,4.93-6.44,5.54-8.92.57-2.28-.41-7-1-9.89-.14-.69-.25-1.25-.31-1.61A42.15,42.15,0,0,0,345.56,573ZM316,585.78a35,35,0,0,0,5.07.38,30.83,30.83,0,0,0,6.37-.62,27.35,27.35,0,0,0,9.2-4.14c.06.33.14.73.24,1.18.53,2.58,1.51,7.39,1,9.45-.58,2.33-1.55,6.22-5.08,8.3a10.44,10.44,0,0,1-7.86.86c-3.33-.93-5.93-3.48-7.73-7.59A19.61,19.61,0,0,1,316,585.78Zm28.82-13.4c-5.22,6.48-11.46,10.8-17.6,12.18-1.23.28-12.3,2.52-22.15-3.91a32.69,32.69,0,0,1-4.82-4.4l0,0,0-1.87c.2-9.08.47-21.51-.31-31.3-.2-2.44-.69-5.64-1.16-8.72-.28-1.86-.55-3.62-.72-5.06l.37-.24a36.84,36.84,0,0,1,5.18-3,46.2,46.2,0,0,1,15.1-3.4c10.86-.84,21.4,1.94,27.27,3.9-.44,3.54-1.45,11.93-1.7,16.53A250.74,250.74,0,0,0,344.82,572.38Zm21.11-141.1c0,.34,1,34.18,17.07,53.87a11.8,11.8,0,0,0,9.74,4.73c6.79,0,13.82-4.57,16.6-6.61,1.07,17.68-2.34,33.1-9.67,43.53a63.29,63.29,0,0,1-18,16.76A55.63,55.63,0,0,1,373,536.7a48.22,48.22,0,0,1-6.66-8.53l-.85.53a49.66,49.66,0,0,0,6.79,8.7,55.48,55.48,0,0,0,8.46,6.73,55.26,55.26,0,0,1-16.28,6.43c-5.89,1.28-13.56.56-18.14.12l-1.24-.11c0-2.62.09-5.15.21-7.46.25-4.49,1.23-12.63,1.68-16.26h0l.07-.21h0l.06-.25.17-.48,0,0c7.14-27.76,8.64-53.87,4.44-77.6-1.05-5.93-3.77-14-6-20.45-.69-2-1.31-3.87-1.83-5.47a116,116,0,0,0,23.57-12.92C366.61,417.2,365.83,427.2,365.93,431.28Zm-74.43.11c-60.65,0-110-37.46-110-83.5a66,66,0,0,1,7.95-31.16c1.17-.05,2.52-.13,4-.21,3.63-.2,7.78-.45,10.79-.42,9.08,0,19.3.53,28.76,1.46l0-.17.75-1.25c1.84-3.1,4.94-8.29,7.85-11.15a48.94,48.94,0,0,1,15.76-10.34c.31.59.69,1.3,1.09,2.07,1.1,2.06,2.46,4.64,3.09,6.13.34.8.71,1.65,1.09,2.52,1.44,3.33,3.06,7.08,4,9.93l.06.66c8-.76,16.13-1.32,24.16-1.65,12.06-.49,24.3-.49,36.37,0v-.14l.45-.1c-.61-2.72-2.48-11-.92-17a34.58,34.58,0,0,1,2.53-5.17c.3-.55.58-1,.8-1.47a70.18,70.18,0,0,1,6.82,6.17c5.56,5.77,9.91,14.35,12.5,19.48l.23.44v.16c7.11,0,14.31.21,21.4.69a134.35,134.35,0,0,1,15.81,2.53c3.33.67,6.48,1.3,9.08,1.67a65.23,65.23,0,0,1,5.62,26.35C401.5,393.93,352.15,431.39,291.5,431.39Zm178.25-90.48c-20.09,26.95-56.72,31.9-72.53,32.75a68.52,68.52,0,0,0,3.18-9.41c2.32-.16,8.24-.62,12.13-1.88,16.82-5.44,25.34-20.43,28.14-25.35,9.6-16.89,10.34-36.42,9.8-42.57a21.13,21.13,0,0,1,.18-5.12c1-6.31,3.88-11,8.12-13.32a14.63,14.63,0,0,1,9.89-1.32c10.57,2.81,13.79,20.37,14.33,23.86C485.08,312.08,480.62,326.33,469.75,340.91Z" transform="translate(-112.51 -241.03)"/><path d="M269.36,351.31c6.15-10,4.39-20.5,3.35-24.57l-.09-.38h-.94l-47.09.64v.32l-.12,0-.13.59a27.47,27.47,0,0,1-1.48,5.17c-2.68,5.63-7.39,8.59-11.17,11-.43.27-1,.63-1.58,1a47.8,47.8,0,0,1-6.93,4.1l0,0-.08.07c-.21.1-.43.19-.64.27l.11.27-.1.1.21.19.14.38.17-.07a55.11,55.11,0,0,0,15.75,11c4.12,1.86,11.12,5,20.06,5a37.59,37.59,0,0,0,6.61-.58C249.55,365.1,262.22,362.87,269.36,351.31ZM223.62,362.4c-1.75-.67-3.26-1.35-4.5-1.91A54.31,54.31,0,0,1,204,349.92a51.67,51.67,0,0,0,6.72-4c.6-.4,1.13-.76,1.55-1,3.69-2.32,8.74-5.5,11.54-11.39a29.06,29.06,0,0,0,1.56-5.38l0-.11,46.49-.63a33.3,33.3,0,0,1,0,15.45,43.86,43.86,0,0,0-8.38-5.5,33.57,33.57,0,0,0-12.28-3.17c-3.29-.18-8.26-.46-13.72,2.25a24.18,24.18,0,0,0-9.72,9.07,26.82,26.82,0,0,0-3.65,9.15A40.47,40.47,0,0,0,223.62,362.4Zm21.59,2.45a39.53,39.53,0,0,1-20.58-2.07,40.42,40.42,0,0,1,.46-8,25.66,25.66,0,0,1,3.5-8.8,23.14,23.14,0,0,1,9.33-8.71c5.21-2.6,10-2.33,13.21-2.15A32.4,32.4,0,0,1,263,338.22a43.4,43.4,0,0,1,8.53,5.67,28.68,28.68,0,0,1-3.06,6.9C261.6,362,249.27,364.13,245.21,364.85Z" transform="translate(-112.51 -241.03)"/><path d="M390,352c-5.87-3.52-13.38-9.74-16.32-19.65a40.93,40.93,0,0,1-1.18-6.68h-.13v-.28l-50.57.37v.45h0c-.57,5.44-.89,15.72,3.35,23.47,9.17,16.76,29.46,18.28,31.74,18.4.62,0,1.23,0,1.84,0,16.69,0,28.71-11.79,32.09-15.51l-.74-.68Zm-64-2.8a29,29,0,0,1-3-9.46,32.55,32.55,0,0,1,6.83-5c9.4-4.48,18.69-.1,19.08.09a20.64,20.64,0,0,1,9.93,9.66A21,21,0,0,1,360.05,359a22.65,22.65,0,0,1-4.49,8C350.46,366.42,333.91,363.66,326,349.16ZM356.9,367h-.13a23.27,23.27,0,0,0,4.24-7.78,21.32,21.32,0,0,0-11.71-25.32c-.41-.2-10.11-4.78-19.94-.09a32.49,32.49,0,0,0-6.58,4.66,54.74,54.74,0,0,1-.08-11.78l48.85-.36a40.43,40.43,0,0,0,1.15,6.24c3,10.11,10.59,16.48,16.58,20.1C385,357.15,373,367.88,356.9,367Z" transform="translate(-112.51 -241.03)"/><path d="M246.67,342.93c-5.56,0-10.08,3.91-10.08,8.7s4.52,8.71,10.08,8.71,10.07-3.91,10.07-8.71S252.22,342.93,246.67,342.93Z" transform="translate(-112.51 -241.03)"/><path d="M342.39,341.56c-5.55,0-10.07,3.91-10.07,8.71s4.52,8.7,10.07,8.7,10.07-3.9,10.07-8.7S348,341.56,342.39,341.56Z" transform="translate(-112.51 -241.03)"/></g><g id="Layer_4" data-name="Layer 4"><ellipse class="cls-3" cx="229.25" cy="108.02" rx="4" ry="3.69"/><ellipse class="cls-3" cx="135.71" cy="109.25" rx="4" ry="3.69"/><ellipse class="cls-3" cx="222.92" cy="104.17" rx="2.46" ry="2.15"/><ellipse class="cls-3" cx="128.24" cy="106.3" rx="2.46" ry="2.15"/></g></svg>